<svg xmlns="http://www.w3.org/2000/svg" width="35" height="25" viewBox="0 0 9.26 6.615">
  <g fill="#fff">
    <path class="logosquare" d="M2.646 2.646h1.323v1.323H2.646z"/>
    <path class="logosquare" d="M3.969 2.646h1.323v1.323H3.969z"/>
    <path class="logosquare" d="M5.292 2.646h1.323v1.323H5.292z"/>
    <path class="logosquare" d="M6.615 2.646h1.323v1.323H6.615z"/>
    <path class="logosquare" d="M3.969 1.323h1.323v1.323H3.969z"/>
    <path class="logosquare" d="M5.292 1.323h1.323v1.323H5.292z"/>
    <path class="logosquare" d="M3.969 3.969h1.323v1.323H3.969z"/>
    <path class="logosquare" d="M5.292 3.969h1.323v1.323H5.292z"/>
    <path class="logosquare" d="M6.615 1.323h1.323v1.323H6.615z"/>
    <path class="logosquare" d="M6.615 3.969h1.323v1.323H6.615z"/>
    <path class="logosquare" d="M5.292 0h1.323v1.323H5.292z"/>
    <path class="logosquare" d="M5.292 5.292h1.323v1.323H5.292z"/>
    <path class="logosquare" d="M7.938 2.646H9.26v1.323H7.938z"/>
    <path class="logosquare" d="M2.646 1.323H1.323v1.323h1.323z"/>
    <path class="logosquare" d="M1.323 0H0v1.323h1.323z"/>
    <path class="logosquare" d="M2.646 3.969H1.323v1.323h1.323z"/>
    <path class="logosquare" d="M1.323 5.292H0v1.323h1.323z"/>
  </g>
</svg>
