<?xml version="1.0" encoding="UTF-8" standalone="no"?>
<!-- Created with Inkscape (http://www.inkscape.org/) -->

<svg
   xmlns:dc="http://purl.org/dc/elements/1.1/"
   xmlns:cc="http://creativecommons.org/ns#"
   xmlns:rdf="http://www.w3.org/1999/02/22-rdf-syntax-ns#"
   xmlns:svg="http://www.w3.org/2000/svg"
   xmlns="http://www.w3.org/2000/svg"
   xmlns:sodipodi="http://sodipodi.sourceforge.net/DTD/sodipodi-0.dtd"
   xmlns:inkscape="http://www.inkscape.org/namespaces/inkscape"
   width="281.49826mm"
   height="281.49826mm"
   viewBox="0 0 997.4348 997.43478"
   id="svg2"
   version="1.1"
   inkscape:version="0.91 r13725"
   sodipodi:docname="LogoCircleWhite.svg">
  <defs
     id="defs4" />
  <sodipodi:namedview
     id="base"
     pagecolor="#ffffff"
     bordercolor="#666666"
     borderopacity="1.0"
     inkscape:pageopacity="0"
     inkscape:pageshadow="2"
     inkscape:zoom="0.30628571"
     inkscape:cx="508.51216"
     inkscape:cy="494.92536"
     inkscape:document-units="px"
     inkscape:current-layer="flowRoot4245"
     showgrid="false"
     fit-margin-top="0"
     fit-margin-left="0"
     fit-margin-right="0"
     fit-margin-bottom="0"
     inkscape:window-width="1264"
     inkscape:window-height="752"
     inkscape:window-x="8"
     inkscape:window-y="40"
     inkscape:window-maximized="0" />
  <metadata
     id="metadata7">
    <rdf:RDF>
      <cc:Work
         rdf:about="">
        <dc:format>image/svg+xml</dc:format>
        <dc:type
           rdf:resource="http://purl.org/dc/dcmitype/StillImage" />
        <dc:title></dc:title>
      </cc:Work>
    </rdf:RDF>
  </metadata>
  <g
     inkscape:label="Layer 1"
     inkscape:groupmode="layer"
     id="layer1"
     transform="translate(131.1226,9.3865312)">
    <flowRoot
       xml:space="preserve"
       id="flowRoot4229"
       style="font-style:normal;font-weight:normal;font-size:90px;line-height:125%;font-family:sans-serif;letter-spacing:0px;word-spacing:0px;fill:#000000;fill-opacity:1;stroke:none;stroke-width:1px;stroke-linecap:butt;stroke-linejoin:miter;stroke-opacity:1"><flowRegion
         id="flowRegion4231"><rect
           id="rect4233"
           width="1028.5714"
           height="337.14285"
           x="80"
           y="220.93364"
           style="font-size:90px" /></flowRegion><flowPara
         id="flowPara4235"></flowPara></flowRoot>    <flowRoot
       xml:space="preserve"
       id="flowRoot4237"
       style="font-style:normal;font-weight:normal;font-size:90px;line-height:125%;font-family:sans-serif;letter-spacing:0px;word-spacing:0px;fill:#000000;fill-opacity:1;stroke:none;stroke-width:1px;stroke-linecap:butt;stroke-linejoin:miter;stroke-opacity:1"><flowRegion
         id="flowRegion4239"><rect
           id="rect4241"
           width="845.71429"
           height="694.28571"
           x="71.428574"
           y="200.93364"
           style="font-size:90px" /></flowRegion><flowPara
         id="flowPara4243"></flowPara></flowRoot>    <g
       transform="translate(172.28571,132.28571)"
       style="color:#000000;font-style:normal;font-weight:normal;font-size:5px;line-height:125%;font-family:sans-serif;letter-spacing:0px;word-spacing:0px;clip-rule:nonzero;display:inline;overflow:visible;visibility:visible;opacity:1;isolation:auto;mix-blend-mode:normal;color-interpolation:sRGB;color-interpolation-filters:linearRGB;solid-color:#000000;solid-opacity:1;fill:#008080;fill-opacity:1;fill-rule:nonzero;stroke:none;stroke-width:1px;stroke-linecap:butt;stroke-linejoin:miter;stroke-miterlimit:4;stroke-dasharray:none;stroke-dashoffset:0;stroke-opacity:1;color-rendering:auto;image-rendering:auto;shape-rendering:auto;text-rendering:auto;enable-background:accumulate"
       id="flowRoot4245">
      <circle
         style="color:#000000;clip-rule:nonzero;display:inline;overflow:visible;visibility:visible;opacity:1;isolation:auto;mix-blend-mode:normal;color-interpolation:sRGB;color-interpolation-filters:linearRGB;solid-color:#000000;solid-opacity:1;fill:#006e8a;fill-opacity:1;fill-rule:nonzero;stroke:none;stroke-width:1px;stroke-linecap:butt;stroke-linejoin:miter;stroke-miterlimit:4;stroke-dasharray:none;stroke-dashoffset:0;stroke-opacity:1;color-rendering:auto;image-rendering:auto;shape-rendering:auto;text-rendering:auto;enable-background:accumulate"
         id="path4763"
         cx="195.30907"
         cy="357.04514"
         r="498.71738" />
      <path
         style="fill:#ffffff"
         d="m -189.13589,607.57226 c 0,-20.83334 0,-41.66667 0,-62.50001 41.66667,0 83.33335,0 125.00002,0 0,-41.66667 0,-83.33334 0,-125.00001 41.666672,0 83.333346,0 125.000016,0 0,-41.66667 0,-83.33334 0,-125.00001 -41.66667,0 -83.333344,0 -125.000016,0 0,-41.66667 0,-83.33334 0,-125.00001 -41.66667,0 -83.33335,0 -125.00002,0 0,-41.66667 0,-83.333353 0,-125.000022 41.66667,0 83.33335,0 125.00002,0 0,41.666669 0,83.333352 0,125.000022 41.666672,0 83.333346,0 125.000016,0 0,41.66667 0,83.33334 0,125.00001 41.666674,0 83.333344,0 125.000014,0 0,-41.66667 0,-83.33334 0,-125.00001 41.66667,0 83.33335,0 125.00002,0 0,-41.66667 0,-83.333353 0,-125.000022 41.66667,0 83.33335,0 125.00002,0 0,41.666669 0,83.333352 0,125.000022 41.66667,0 83.33334,0 125.00001,0 0,41.66667 0,83.33334 0,125.00001 41.66667,0 83.33335,0 125.00002,0 0,41.66667 0,83.33334 0,125.00001 -41.66667,0 -83.33335,0 -125.00002,0 0,41.66667 0,83.33334 0,125.00001 -41.66667,0 -83.33334,0 -125.00001,0 0,41.66667 0,83.33334 0,125.00001 -41.66667,0 -83.33335,0 -125.00002,0 0,-41.66667 0,-83.33334 0,-125.00001 -41.66667,0 -83.33335,0 -125.00002,0 0,-41.66667 0,-83.33334 0,-125.00001 -41.66667,0 -83.33334,0 -125.000014,0 0,41.66667 0,83.33334 0,125.00001 -41.66667,0 -83.333344,0 -125.000016,0 0,41.66667 0,83.33334 0,125.00001 -41.66667,0 -83.33335,0 -125.00002,0 0,-20.83333 0,-41.66667 0,-62.5 z"
         id="path4707"
         inkscape:connector-curvature="0" />
    </g>
  </g>
</svg>
