<?xml version="1.0" standalone="no"?>
<!DOCTYPE svg PUBLIC "-//W3C//DTD SVG 20010904//EN"
 "http://www.w3.org/TR/2001/REC-SVG-20010904/DTD/svg10.dtd">
<svg version="1.0" xmlns="http://www.w3.org/2000/svg"
 width="875.000000pt" height="875.000000pt" viewBox="0 0 875.000000 875.000000"
 preserveAspectRatio="xMidYMid meet">
<metadata>
Created by potrace 1.11, written by Peter Selinger 2001-2013
</metadata>
<g transform="translate(0.000000,875.000000) scale(0.100000,-0.100000)"
fill="#000000" stroke="none">
<path d="M0 6875 l0 -625 625 0 625 0 0 -625 0 -625 625 0 625 0 0 -615 c0
-338 0 -618 0 -622 0 -5 -23 -8 -50 -8 -28 0 -50 -3 -50 -6 0 -3 -23 -3 -50 1
-28 4 -53 4 -55 0 -2 -4 -25 -4 -50 0 -25 4 -48 3 -51 -2 -3 -5 -12 -4 -20 3
-8 6 -14 8 -14 3 0 -5 -36 -7 -81 -4 -44 3 -86 2 -92 -2 -6 -3 -21 -2 -33 2
-13 5 -25 6 -28 1 -3 -4 -27 -5 -53 -2 -26 4 -61 4 -78 1 -16 -3 -45 -3 -63 1
-17 4 -34 4 -36 0 -3 -4 -20 -6 -38 -4 -60 6 -149 6 -154 0 -3 -3 -17 -2 -30
3 -14 6 -26 6 -29 -1 -4 -5 -10 -7 -15 -4 -5 3 -37 5 -72 5 -35 -1 -73 -1 -85
-1 l-23 1 0 -625 0 -625 -625 0 -625 0 0 -625 0 -625 625 0 625 0 0 625 0 625
625 0 c588 0 625 1 626 18 1 9 0 21 -1 27 -1 5 -1 17 -1 25 0 16 1 218 0 235
0 6 0 24 0 40 1 17 1 39 1 50 0 11 -1 65 -1 120 0 55 0 105 0 110 0 6 0 24 0
40 1 17 1 39 1 50 0 11 -1 65 -1 120 0 55 0 105 0 110 0 6 0 24 0 40 1 17 1
39 1 50 0 11 -1 64 -1 118 l0 99 71 -4 c38 -1 70 1 70 5 0 4 9 3 20 -3 11 -6
20 -7 20 -2 0 5 18 6 40 2 25 -5 40 -4 40 3 0 5 6 4 14 -2 9 -8 16 -8 20 -2 4
6 16 7 29 2 12 -5 31 -5 42 -1 11 4 29 4 40 0 11 -4 28 -5 37 -1 9 3 53 4 98
1 44 -3 80 -1 80 3 0 4 9 3 20 -3 11 -6 20 -7 20 -2 0 5 18 6 40 2 25 -5 40
-4 40 3 0 5 6 4 14 -2 9 -8 16 -8 20 -2 4 6 16 7 29 2 12 -5 31 -5 42 -1 11 4
29 4 40 0 11 -4 28 -5 37 -1 9 3 53 4 98 1 44 -3 80 -1 80 3 0 4 9 3 20 -3 11
-6 20 -7 20 -1 0 5 14 6 33 1 18 -4 43 -3 55 1 l22 8 0 -629 0 -630 624 0 624
0 4 -35 c2 -19 0 -35 -4 -35 -5 0 -4 -9 2 -20 6 -11 7 -20 2 -20 -5 0 -6 -20
-2 -45 4 -25 4 -48 0 -50 -4 -2 -4 -27 0 -55 4 -27 3 -50 -1 -50 -4 0 -4 -13
1 -29 4 -15 5 -33 1 -39 -3 -5 -4 -47 -1 -91 3 -45 1 -81 -4 -81 -5 0 -3 -6 3
-14 7 -8 8 -17 3 -20 -5 -3 -6 -26 -2 -51 4 -25 4 -48 0 -50 -4 -2 -4 -27 0
-55 4 -27 3 -50 -1 -50 -4 0 -4 -13 1 -29 4 -15 5 -33 1 -39 -3 -5 -4 -47 -1
-91 3 -45 1 -81 -4 -81 -5 0 -3 -6 3 -14 8 -9 8 -16 2 -20 -5 -4 -6 -18 -2
-34 4 -15 5 -38 2 -51 -4 -13 -5 -41 -3 -62 l4 -39 624 0 624 0 0 625 0 625
625 0 625 0 0 626 0 626 30 -4 c17 -3 30 0 30 5 0 5 6 4 14 -2 9 -8 16 -8 20
-2 4 6 16 7 29 2 12 -5 31 -5 42 -1 11 4 29 4 40 0 11 -4 28 -5 37 -1 9 3 53
4 98 1 44 -3 80 -1 80 3 0 4 9 3 20 -3 11 -6 20 -7 20 -2 0 5 18 6 40 2 25 -5
40 -4 40 3 0 5 6 4 14 -2 9 -8 16 -8 20 -2 4 6 16 7 29 2 12 -5 31 -5 42 -1
11 4 29 4 40 0 11 -4 28 -5 37 -1 9 3 53 4 98 1 44 -3 80 -1 80 3 0 4 9 3 20
-3 11 -6 20 -7 20 -2 0 5 20 6 45 2 25 -4 48 -4 50 0 2 4 26 4 53 0 27 -3 58
-3 68 1 11 3 28 3 39 -1 11 -3 28 -5 38 -2 16 3 17 41 17 628 l0 624 -625 0
-625 0 0 625 0 625 -625 0 -625 0 0 625 0 625 -624 0 -625 0 1 -39 c0 -22 -2
-43 -5 -48 -3 -5 -2 -15 3 -22 4 -8 4 -26 0 -41 -4 -15 -4 -33 0 -40 4 -6 4
-27 0 -46 -4 -19 -4 -36 0 -39 5 -3 5 -18 0 -34 -4 -15 -4 -34 0 -41 4 -7 4
-25 0 -40 -4 -15 -4 -33 0 -40 4 -7 4 -25 0 -40 -4 -15 -4 -33 0 -40 4 -6 4
-27 0 -46 -4 -19 -4 -36 0 -39 5 -3 5 -18 0 -34 -4 -15 -4 -34 0 -41 4 -7 4
-25 0 -40 -4 -15 -4 -33 0 -40 4 -7 4 -25 0 -40 -4 -15 -4 -33 0 -40 4 -6 4
-27 0 -46 -4 -19 -4 -36 0 -39 5 -3 5 -18 0 -34 -4 -15 -4 -34 0 -41 4 -7 4
-25 0 -40 -4 -15 -4 -33 0 -40 4 -7 4 -25 0 -40 -4 -15 -4 -33 0 -41 5 -7 7
-16 4 -21 -2 -4 -5 -23 -6 -43 l-1 -35 -624 0 -623 0 0 -625 0 -625 -625 0
-625 0 0 625 0 625 -625 0 -625 0 0 625 0 625 -625 0 -625 0 0 -625z"/>
</g>
</svg>
